<?xml version="1.0" standalone="no"?>
<!DOCTYPE svg PUBLIC "-//W3C//DTD SVG 20010904//EN"
 "http://www.w3.org/TR/2001/REC-SVG-20010904/DTD/svg10.dtd">
<svg version="1.0" xmlns="http://www.w3.org/2000/svg"
 width="471.000000pt" height="147.000000pt" viewBox="0 0 471.000000 147.000000"
 preserveAspectRatio="xMidYMid meet">

<g transform="translate(0.000000,147.000000) scale(0.100000,-0.100000)"
fill="#000000" stroke="none">
<path d="M210 730 l0 -480 2145 0 2145 0 0 480 0 480 -2145 0 -2145 0 0 -480z
m4260 0 l0 -450 -2120 0 -2120 0 0 450 0 450 2120 0 2120 0 0 -450z"/>
<path d="M350 730 l0 -390 1030 0 1030 0 0 390 0 390 -1030 0 -1030 0 0 -390z
m942 124 c21 -19 29 -52 16 -61 -6 -3 -20 6 -30 20 -15 21 -28 27 -58 27 -44
0 -70 -23 -53 -48 5 -10 34 -25 63 -34 29 -10 61 -25 71 -34 25 -22 24 -69 -1
-94 -44 -44 -170 -13 -170 41 0 25 27 25 35 -1 11 -35 98 -41 119 -8 15 24
-15 53 -70 67 -69 18 -97 56 -78 106 16 42 116 54 156 19z m-532 1 c0 -11 -12
-15 -45 -15 l-45 0 0 -115 c0 -96 -3 -115 -15 -115 -12 0 -15 19 -15 115 l0
115 -45 0 c-33 0 -45 4 -45 15 0 12 18 15 105 15 87 0 105 -3 105 -15z m110
-80 c0 -106 14 -135 68 -135 56 0 72 35 72 151 0 66 3 79 16 79 14 0 15 -14
12 -106 -3 -102 -4 -107 -31 -130 -20 -17 -40 -24 -70 -24 -78 1 -97 34 -97
164 0 79 3 96 15 96 12 0 15 -17 15 -95z m580 40 l0 -55 70 0 70 0 0 55 c0 42
3 55 15 55 13 0 15 -21 15 -130 0 -107 -3 -130 -15 -130 -10 0 -15 15 -17 58
l-3 57 -67 3 -68 3 0 -61 c0 -53 -2 -60 -20 -60 -19 0 -20 7 -20 130 0 123 1
130 20 130 18 0 20 -7 20 -55z m436 -77 c45 -110 50 -128 34 -128 -10 0 -23
12 -30 30 -12 29 -15 30 -77 30 -62 0 -64 -1 -74 -30 -7 -19 -18 -30 -29 -30
-20 0 -23 -11 76 228 24 58 42 39 100 -100z m289 107 c35 -34 33 -78 -4 -115
-24 -25 -27 -32 -16 -47 48 -70 49 -73 29 -73 -11 0 -31 19 -49 45 -25 37 -35
45 -62 45 -32 0 -33 -1 -33 -45 0 -33 -4 -45 -15 -45 -13 0 -15 21 -15 130 l0
130 70 0 c62 0 74 -3 95 -25z"/>
<path d="M1792 771 c-12 -30 -22 -58 -22 -62 0 -5 20 -9 45 -9 52 0 53 4 21
74 l-22 50 -22 -53z"/>
<path d="M2040 790 l0 -50 48 0 c26 0 52 4 58 8 20 14 25 45 9 68 -13 20 -24
24 -65 24 l-50 0 0 -50z"/>
<path d="M2555 866 c-48 -21 -68 -51 -73 -110 -8 -93 41 -148 133 -148 80 0
135 50 135 122 l0 30 -75 0 c-73 0 -75 -1 -75 -25 0 -22 4 -25 35 -25 39 0 46
-14 16 -30 -31 -16 -56 -12 -79 13 -58 62 17 153 84 102 29 -22 84 -20 84 3 0
38 -75 83 -135 82 -11 -1 -33 -7 -50 -14z"/>
<path d="M2863 853 c-3 -10 -19 -52 -36 -93 -16 -41 -35 -92 -43 -112 l-13
-38 40 0 c32 0 42 4 46 20 4 16 14 20 49 20 33 0 46 -5 54 -20 8 -15 21 -20
49 -20 l39 0 -51 130 -50 130 -39 0 c-28 0 -40 -5 -45 -17z m61 -105 c10 -39
7 -48 -19 -48 -29 0 -28 -2 -14 39 13 37 24 40 33 9z"/>
<path d="M3080 740 l0 -130 35 0 35 0 0 50 0 50 40 0 40 0 0 -50 0 -50 40 0
40 0 0 130 0 130 -40 0 -40 0 0 -45 0 -45 -40 0 -40 0 0 45 c0 45 0 45 -35 45
l-35 0 0 -130z"/>
<path d="M3370 740 l0 -130 90 0 90 0 0 35 0 35 -55 0 -55 0 0 95 0 95 -35 0
-35 0 0 -130z"/>
<path d="M3656 862 c-6 -10 -96 -242 -96 -248 0 -2 18 -4 39 -4 31 0 41 4 46
20 5 16 15 20 52 20 36 0 46 -4 50 -20 4 -16 14 -20 44 -20 22 0 39 3 39 7 0
4 -21 62 -47 130 l-48 123 -37 0 c-20 0 -39 -4 -42 -8z m64 -149 c0 -7 -12
-13 -26 -13 -20 0 -25 4 -20 16 3 9 9 28 13 42 l6 27 13 -30 c7 -16 13 -36 14
-42z"/>
<path d="M3860 784 c0 -121 22 -161 98 -177 35 -8 89 11 112 40 17 22 20 40
20 124 l0 99 -35 0 -35 0 0 -84 c0 -91 -10 -110 -52 -104 -22 3 -23 8 -26 96
l-3 92 -39 0 -40 0 0 -86z"/>
<path d="M4130 835 c0 -34 1 -35 40 -35 l40 0 0 -95 0 -95 40 0 40 0 0 94 0
95 38 3 c34 3 37 6 40 36 l3 32 -120 0 -121 0 0 -35z"/>
</g>
</svg>
